/* XPM */
static const char *px2_xpm[] = {
"16 14 2 1 ",
" 	c None",
".	c #003366",
"                ",
"     ......     ",
"    ........    ",
"   ...    ...   ",
"   ..      ..   ",
"   ..      ..   ",
"   ..      ..   ",
"   ..      ..   ",
"   ..      ..   ",
"   ...    ...   ",
"    ........    ",
"     ......     ",
"                ",
"                "};
